# Blender 4.5.8 LTS
# www.blender.org
mtllib Untitled.mtl
o Cone.001
v 0.375755 8.282303 -5.320322
v 1.666622 8.282303 -5.214142
v 2.907881 8.282303 -4.899685
v 4.051832 8.282303 -4.389037
v 5.054513 8.282303 -3.701818
v 5.877393 8.282303 -2.864439
v 6.488847 8.282303 -1.909081
v 6.865379 8.282303 -0.872456
v 6.992518 8.282303 0.205597
v 6.865379 8.282303 1.283651
v 6.488847 8.282303 2.320275
v 5.877393 8.282303 3.275634
v 5.054513 8.282303 4.113012
v 4.051832 8.282303 4.800231
v 2.907881 8.282303 5.310882
v 1.666622 8.282303 5.625339
v 0.375755 8.282303 5.731517
v -0.915111 8.282303 5.625339
v -2.156370 8.282303 5.310882
v -3.300321 8.282303 4.800231
v -4.303003 8.282303 4.113012
v -5.125882 8.282303 3.275634
v -5.737337 8.282303 2.320275
v -6.113868 8.282303 1.283651
v -6.241008 8.282303 0.205597
v -6.113868 8.282303 -0.872456
v -5.737337 8.282303 -1.909081
v -5.125882 8.282303 -2.864439
v -4.303003 8.282303 -3.701818
v -3.300321 8.282303 -4.389037
v -2.156370 8.282303 -4.899685
v -0.915111 8.282303 -5.214142
v 0.375755 17.963968 0.205597
vn 0.0713 0.4944 -0.8663
vn 0.2129 0.4987 -0.8402
vn 0.3514 0.5070 -0.7871
vn 0.4835 0.5183 -0.7054
vn 0.6041 0.5316 -0.5937
vn 0.7063 0.5447 -0.4521
vn 0.7816 0.5555 -0.2839
vn 0.8217 0.5616 -0.0969
vn 0.8217 0.5616 0.0969
vn 0.7816 0.5555 0.2839
vn 0.7063 0.5447 0.4521
vn 0.6041 0.5316 0.5937
vn 0.4835 0.5183 0.7054
vn 0.3514 0.5070 0.7871
vn 0.2129 0.4987 0.8402
vn 0.0713 0.4944 0.8663
vn -0.0713 0.4944 0.8663
vn -0.2129 0.4987 0.8402
vn -0.3514 0.5070 0.7871
vn -0.4835 0.5183 0.7054
vn -0.6041 0.5316 0.5937
vn -0.7063 0.5447 0.4521
vn -0.7816 0.5555 0.2839
vn -0.8217 0.5616 0.0969
vn -0.8217 0.5616 -0.0969
vn -0.7816 0.5555 -0.2839
vn -0.7063 0.5447 -0.4521
vn -0.6041 0.5316 -0.5937
vn -0.4835 0.5183 -0.7054
vn -0.3514 0.5070 -0.7871
vn -0.0000 -1.0000 -0.0000
vn -0.2129 0.4987 -0.8402
vn -0.0713 0.4944 -0.8663
vt 0.250000 0.490000
vt 0.250000 0.250000
vt 0.296822 0.485388
vt 0.341844 0.471731
vt 0.383337 0.449553
vt 0.419706 0.419706
vt 0.449553 0.383337
vt 0.471731 0.341844
vt 0.485388 0.296822
vt 0.490000 0.250000
vt 0.485388 0.203178
vt 0.471731 0.158156
vt 0.449553 0.116663
vt 0.419706 0.080294
vt 0.383337 0.050447
vt 0.341844 0.028269
vt 0.296822 0.014612
vt 0.250000 0.010000
vt 0.203178 0.014612
vt 0.158156 0.028269
vt 0.116663 0.050447
vt 0.080294 0.080294
vt 0.050447 0.116663
vt 0.028269 0.158156
vt 0.014612 0.203178
vt 0.010000 0.250000
vt 0.014612 0.296822
vt 0.028269 0.341844
vt 0.050447 0.383337
vt 0.080294 0.419706
vt 0.116663 0.449553
vt 0.158156 0.471731
vt 0.750000 0.490000
vt 0.796822 0.485388
vt 0.841844 0.471731
vt 0.883337 0.449553
vt 0.919706 0.419706
vt 0.949553 0.383337
vt 0.971731 0.341844
vt 0.985388 0.296822
vt 0.990000 0.250000
vt 0.985388 0.203178
vt 0.971731 0.158156
vt 0.949553 0.116663
vt 0.919706 0.080294
vt 0.883337 0.050447
vt 0.841844 0.028269
vt 0.796822 0.014612
vt 0.750000 0.010000
vt 0.703178 0.014612
vt 0.658156 0.028269
vt 0.616663 0.050447
vt 0.580294 0.080294
vt 0.550447 0.116663
vt 0.528269 0.158156
vt 0.514612 0.203178
vt 0.510000 0.250000
vt 0.514612 0.296822
vt 0.528269 0.341844
vt 0.550447 0.383337
vt 0.580294 0.419706
vt 0.616663 0.449553
vt 0.658156 0.471731
vt 0.703178 0.485388
vt 0.203178 0.485388
s 1
usemtl Material.001
f 1/1/1 33/2/1 2/3/1
f 2/3/2 33/2/2 3/4/2
f 3/4/3 33/2/3 4/5/3
f 4/5/4 33/2/4 5/6/4
f 5/6/5 33/2/5 6/7/5
f 6/7/6 33/2/6 7/8/6
f 7/8/7 33/2/7 8/9/7
f 8/9/8 33/2/8 9/10/8
f 9/10/9 33/2/9 10/11/9
f 10/11/10 33/2/10 11/12/10
f 11/12/11 33/2/11 12/13/11
f 12/13/12 33/2/12 13/14/12
f 13/14/13 33/2/13 14/15/13
f 14/15/14 33/2/14 15/16/14
f 15/16/15 33/2/15 16/17/15
f 16/17/16 33/2/16 17/18/16
f 17/18/17 33/2/17 18/19/17
f 18/19/18 33/2/18 19/20/18
f 19/20/19 33/2/19 20/21/19
f 20/21/20 33/2/20 21/22/20
f 21/22/21 33/2/21 22/23/21
f 22/23/22 33/2/22 23/24/22
f 23/24/23 33/2/23 24/25/23
f 24/25/24 33/2/24 25/26/24
f 25/26/25 33/2/25 26/27/25
f 26/27/26 33/2/26 27/28/26
f 27/28/27 33/2/27 28/29/27
f 28/29/28 33/2/28 29/30/28
f 29/30/29 33/2/29 30/31/29
f 30/31/30 33/2/30 31/32/30
f 1/33/31 2/34/31 3/35/31 4/36/31 5/37/31 6/38/31 7/39/31 8/40/31 9/41/31 10/42/31 11/43/31 12/44/31 13/45/31 14/46/31 15/47/31 16/48/31 17/49/31 18/50/31 19/51/31 20/52/31 21/53/31 22/54/31 23/55/31 24/56/31 25/57/31 26/58/31 27/59/31 28/60/31 29/61/31 30/62/31 31/63/31 32/64/31
f 31/32/32 33/2/32 32/65/32
f 32/65/33 33/2/33 1/1/33
o Cube.001
v -6.271040 0.000000 5.798359
v -6.271040 8.282302 5.798358
v -6.271040 -0.000000 -5.358658
v -6.271040 8.282302 -5.358658
v 7.000202 0.000000 5.798359
v 7.000202 8.282302 5.798358
v 7.000202 -0.000000 -5.358658
v 7.000202 8.282302 -5.358658
vn -1.0000 -0.0000 -0.0000
vn -0.0000 -0.0000 -1.0000
vn 1.0000 -0.0000 -0.0000
vn -0.0000 -0.0000 1.0000
vn -0.0000 -1.0000 -0.0000
vn -0.0000 1.0000 -0.0000
vt 0.375000 0.000000
vt 0.625000 0.000000
vt 0.625000 0.250000
vt 0.375000 0.250000
vt 0.625000 0.500000
vt 0.375000 0.500000
vt 0.625000 0.750000
vt 0.375000 0.750000
vt 0.625000 1.000000
vt 0.375000 1.000000
vt 0.125000 0.500000
vt 0.125000 0.750000
vt 0.875000 0.500000
vt 0.875000 0.750000
s 1
usemtl Material.002
f 34/66/34 35/67/34 37/68/34 36/69/34
f 36/69/35 37/68/35 41/70/35 40/71/35
f 40/71/36 41/70/36 39/72/36 38/73/36
f 38/73/37 39/72/37 35/74/37 34/75/37
f 36/76/38 40/71/38 38/73/38 34/77/38
f 41/70/39 37/78/39 35/79/39 39/72/39
